<?xml version="1.0" encoding="UTF-8"?>
<svg version="1.1" viewBox="0 0 1452 988" width="363" height="247" xmlns="http://www.w3.org/2000/svg">
<path transform="translate(0)" d="m0 0h1452v988h-1452z" fill="#FDFEFE"/>
<path transform="translate(834,97)" d="m0 0 4 1 7 18 9 35 2 15v38l-4 24-6 22-7 20-8 18-9 17-10 16-13 17-8 10-9 10-7 8-20 20-8 7-11 10-11 9-17 14-11 9-9 9-8 7-11 11-11 14-10 15-7 14-5 17-1 5-1 26h-2l-7-14-6-19-2-11v-16l4-19 6-15 8-15 12-18 14-19 14-21 8-16 4-11 2-11v-13l-3-17-6-15-8-14-8-11-9-10v-2l-4-2-11-10-14-10-21-12-20-8-16-5h-3l25 13 14 9 10 8 10 9 12 12 9 11 12 17 5 8-1 4-22 4-20 2-18-2-16-5-9-4-12-7-10-9-8-9-10-15-14-23-12-17-12-14-12-10-21-14v-2l14-4 23-4 11-1h34l19 2 19 4 19 7 16 8 14 9 13 10 17 17 13 18 13 23 9 19 4 1 17-5 17-7 14-8 13-9 11-9 7-6 7-8 11-14 12-21 8-19 7-22 4-19 2-15z" fill="#8CB442"/>
<path transform="translate(870,158)" d="m0 0 5 5 9 24 5 21 3 17 1 10v29l-4 27-5 20-7 20-6 13-9 17-11 15-8 10-9 11-20 20-8 7-11 9-20 15-9 6-17 12-16 12-11 9-10 9-16 16-12 17-8 15-5 17-1 6v21l3 13v6l-5-4-8-14-6-15-4-15-1-9v-12l3-16 7-17 6-11 12-16 9-10 18-18 11-9 15-13 16-13 15-13 8-7 12-11 18-18 7-8 13-16 12-18 12-20 8-16 8-19 6-20 5-25 2-18v-30l-2-13z" fill="#1D5CA6"/>
<path transform="translate(687,670)" d="m0 0h67l20 4 11 6 5 4 6 8 6 12 2 7v17l-4 14-7 10-8 8-16 8-9 2-9 1h-34l-1 1-1 39-1 1h-28v-141z" fill="#444D53"/>
<path transform="translate(595,702)" d="m0 0h15l14 3 14 7 12 11 7 11 4 12 1 5v16l-3 11-7 13-10 10-14 8-13 4-5 1h-15l-13-3-13-7-10-9-7-10-5-12-2-8v-13l4-16 6-11 6-7 13-9 12-5z" fill="#8CB442"/>
<path transform="translate(307,670)" d="m0 0h98l6 1v23l-1 1h-74l-1 34h65l1 23-65 1-1 36h78v23h-106l-1-32v-109z" fill="#8CB442"/>
<path transform="translate(1173,701)" d="m0 0 16 1 12 4 10 6 8 8 8 14 4 12 1 5v12l-1 3-2 1-80 1 7 14 14 7 5 1h8l12-3 14-7 5 2 8 7 3 5-5 6-13 8-12 4-6 1h-19l-16-4-11-6-10-9-7-10-5-13-1-6v-17l3-12 6-11 9-10 10-7 12-5z" fill="#434B53"/>
<path transform="translate(847,702)" d="m0 0h5l2 2 1 68 3 8 4 5 6 3 4 1h9l8-2 6-4 4-5 2-4 1-7 2-64 7-1h20l1 2v107l-10 1-18-1v-9l-1-3-12 9-9 4-5 1h-20l-11-4-6-4-8-9-5-12-2-10v-71z" fill="#444D53"/>
<path transform="translate(1057,701)" d="m0 0h10l14 2 18 6 4 3-2 6-7 12-3 1-12-5-16-3-11 1-5 3-3 5v5l6 5 31 8 12 5 7 6 4 7 2 8-1 11-6 12-7 6-10 5-12 3h-21l-15-3-16-6-5-4 1-6 6-13 6 1 14 6 9 2h20l6-4 2-3v-6l-5-4-31-8-9-4-6-4-6-7-3-7v-15l4-10 5-6 10-6 13-4z" fill="#434C53"/>
<path transform="translate(480,701)" d="m0 0h15l14 4 9 5 11 9 6 8-1 3-19 9h-3l-7-8-8-4-3-1h-13l-12 6-6 7-4 9-1 4v13l4 10 4 6 8 6 6 2h14l10-4 9-8 5 1 13 9 1 5-7 8-10 7-12 5-12 2h-10l-16-4-13-7-5-4v-2l-3-1-7-10-5-12-2-12 1-16 4-13 6-9 7-8 14-9 10-4z" fill="#8CB442"/>
<path transform="translate(718,169)" d="m0 0h17l10 4 6 4 8 9 5 10 2 9v10l-3 11-7 10-7 6-8 4-7 2h-16l-10-4-6-4-8-8-6-11-2-10 1-12 4-11 7-9 10-7z" fill="#424A53"/>
<path transform="translate(969,661)" d="m0 0h21l1 1v149h-27l-1-1v-86l1-62z" fill="#434C53"/>
<path transform="translate(799,560)" d="m0 0h3l2 10h33l21-1 6-1h8l-1 6-11 21-8 11-4 4-11 2h-33l-2 10-5-2-9-12-12-15-1-3 7-9 10-12 5-8z" fill="#8CB442"/>
<path transform="translate(596,725)" d="m0 0h15l9 4 7 5 5 8 2 6v18l-4 10-9 10-12 5h-13l-10-4-6-5-5-8-2-5-1-6v-8l4-13 6-8 7-6z" fill="#FDFEFE"/>
<path transform="translate(751,521)" d="m0 0 5 1 7 25 5 14-3 1-4-2-1-2h-4l-10 16-12 20-5 10-1 3-4-1-8-11-9-13-4-9 5-12 7-12 7-9 1-4-7-8v-3z" fill="#8CB442"/>
<path transform="translate(716,694)" d="m0 0h29l15 2 8 5 6 9 1 4v12l-4 9-5 5-7 4-4 1-19 1-20-1-1-21v-28z" fill="#FDFEFE"/>
<path transform="translate(842,488)" d="m0 0 4 2 15 24 12 20 3 7v7l-4 6-8 6-10 3h-6l-5-4-11-17-14-21-5-7 2-4 25-20z" fill="#8CB442"/>
<path transform="translate(786,462)" d="m0 0h20l12 3 12 6 2 4-9 6-13 12-11 14-7 10-5-1-20-12-11-7 2-5 8-10 8-11 8-8z" fill="#8CB442"/>
<path transform="translate(1169,723)" d="m0 0h14l10 4 5 4 6 10 1 8h-58l2-10 6-8 8-6z" fill="#FDFEFE"/>
</svg>
